<?xml version="1.0"?>
<svg xmlns="http://www.w3.org/2000/svg" id="Layer_1" data-name="Layer 1" viewBox="0 0 512 512" width="512" height="512"><title>Parcel boxses</title><polygon points="159.99 91.671 264.737 31.195 253.712 24.83 148.697 85.46 159.99 91.671" style="fill:#d4e1f4"/><polygon points="156.03 212.498 156.03 102.859 144.737 96.301 144.737 217.58 249.759 278.214 249.759 266.613 156.03 212.498" style="fill:#d4e1f4"/><polygon points="42.99 295.719 147.737 235.243 136.712 228.878 31.697 289.508 42.99 295.719" style="fill:#d4e1f4"/><polygon points="39.03 416.546 39.03 306.907 27.737 300.349 27.737 421.627 132.76 482.262 132.76 470.66 39.03 416.546" style="fill:#d4e1f4"/><polygon points="278.253 295.68 383 235.204 371.975 228.839 266.96 289.469 278.253 295.68" style="fill:#d4e1f4"/><polygon points="274.293 416.507 274.293 306.868 263 300.31 263 421.588 368.022 482.223 368.022 470.621 274.293 416.507" style="fill:#d4e1f4"/><path d="M377.658,80.579,260.325,12.791a6.929,6.929,0,0,0-6.961,0L135.726,80.579A7.221,7.221,0,0,0,132,86.642V222h14V98.764l34,19.416v82.81a7.066,7.066,0,0,0,2.149,4.983l34.379,33.889a7.017,7.017,0,0,0,11.945-4.994l-.1-88.936L250,158.452V290h14V158.463l103-59.7V222h14V86.642A6.858,6.858,0,0,0,377.658,80.579ZM256.9,26.937l103.412,59.7-103.4,59.692-21.737-12.61L288.3,102.452a7,7,0,0,0,.1-12L255.858,70.562a7,7,0,0,0-7.137-.1l-61.769,35.487-33.46-19.312ZM214.3,133.778l.08,84.332L194,198.063V117.975l58.032-33.3,19.073,11.636-53.37,31.426A6.985,6.985,0,0,0,214.3,133.778Z" style="fill:#1ae5be"/><path d="M494.5,283.719,377.087,215.931a7,7,0,0,0-7,0L256,281.8,141.913,215.931a7,7,0,0,0-7,0L17.5,283.719a7,7,0,0,0-3.5,6.062V425.358a7,7,0,0,0,3.5,6.063l117.413,67.788a7.005,7.005,0,0,0,7,0L256,433.341l114.087,65.868a7.005,7.005,0,0,0,7,0L494.5,431.421a7,7,0,0,0,3.5-6.063V289.781A7,7,0,0,0,494.5,283.719ZM373.587,230.076,477,289.781,373.6,349.473l-21.737-12.612,53.121-31.269a7,7,0,0,0,.1-12L372.541,273.7a6.993,6.993,0,0,0-7.137-.1l-61.769,35.486-33.459-19.31ZM263,301.7l34,19.615V404.13a6.91,6.91,0,0,0,1.99,4.982L333.29,443a6.975,6.975,0,0,0,11.876-4.994l.05-88.936L367,361.592v119.43L263,421.116Zm71.435,29.17a7,7,0,0,0-3.449,6.044l.238,84.333L311,401.2v-80.09l57.874-33.3,18.994,11.635Zm-196.022-100.8,103.413,59.705-103.4,59.692-21.737-12.612,53.121-31.269a7,7,0,0,0,.1-12L137.367,273.7a6.993,6.993,0,0,0-7.137-.1L68.461,309.091,35,289.78ZM96.137,421.25,76,401.2v-80.09l57.787-33.3,18.95,11.635L99.306,330.873a6.939,6.939,0,0,0-3.382,6.044ZM28,301.9l34,19.415V404.13a6.834,6.834,0,0,0,1.9,4.982L98.16,443a6.89,6.89,0,0,0,7.555,1.474A6.99,6.99,0,0,0,110,438.008l-.365-88.936L131,361.592v119.43l-103-59.7ZM145,481.022V361.6l104-59.7V421.317Zm236,0V361.6l103-59.7V421.317Z" style="fill:#0635c9"/></svg>
