<svg xmlns="http://www.w3.org/2000/svg" width="204" height="32" viewBox="0 0 204 32"><defs><linearGradient id="a" x1="159.06" x2="157.49" y1="91.82" y2="82.92" gradientUnits="userSpaceOnUse"><stop offset="0" stop-color="#636369"/><stop offset=".46" stop-color="#a9a9ae"/><stop offset=".82" stop-color="#d9d9de"/><stop offset="1" stop-color="#ebebf0"/></linearGradient><linearGradient id="b" x1="122.58" x2="147.81" y1="95.62" y2="74.42" gradientUnits="userSpaceOnUse"><stop offset="0" stop-color="#e6f0f5"/><stop offset=".06" stop-color="#cbe3ef"/><stop offset=".2" stop-color="#96cde3"/><stop offset=".34" stop-color="#68b9da"/><stop offset=".47" stop-color="#41a9d1"/><stop offset=".61" stop-color="#259ccb"/><stop offset=".74" stop-color="#1193c7"/><stop offset=".87" stop-color="#048ec3"/><stop offset="1" stop-color="#008cc3"/></linearGradient><linearGradient id="c" x1="109.63" x2="119.86" y1="81.94" y2="92.54" gradientUnits="userSpaceOnUse"><stop offset="0" stop-color="#e6f0f5"/><stop offset=".09" stop-color="#ddecf3"/><stop offset=".24" stop-color="#c5e1ee"/><stop offset=".43" stop-color="#9dd0e5"/><stop offset=".65" stop-color="#66b8d9"/><stop offset=".9" stop-color="#209aca"/><stop offset="1" stop-color="#008cc3"/></linearGradient><linearGradient id="d" x1="156.23" x2="154.67" y1="102.98" y2="94.08" gradientUnits="userSpaceOnUse"><stop offset="0" stop-color="#636369"/><stop offset=".46" stop-color="#a9a9ae"/><stop offset=".82" stop-color="#d9d9de"/><stop offset="1" stop-color="#ebebf0"/></linearGradient><linearGradient id="e" x1="123.5" x2="152.2" y1="98.51" y2="98.51" gradientUnits="userSpaceOnUse"><stop offset="0" stop-color="#e6f0f5"/><stop offset=".11" stop-color="#c0deea"/><stop offset=".28" stop-color="#86c2da"/><stop offset=".45" stop-color="#55abcc"/><stop offset=".62" stop-color="#3099c2"/><stop offset=".77" stop-color="#168dba"/><stop offset=".9" stop-color="#0585b6"/><stop offset="1" stop-color="#0082b3"/></linearGradient><linearGradient id="f" x1="121.97" x2="131.6" y1="94.02" y2="103.01" gradientUnits="userSpaceOnUse"><stop offset="0" stop-color="#e6f0f5"/><stop offset=".16" stop-color="#c7e1ec"/><stop offset=".51" stop-color="#77bbd6"/><stop offset="1" stop-color="#0082b3"/></linearGradient><linearGradient id="g" x1="153.4" x2="151.84" y1="114.12" y2="105.22" gradientUnits="userSpaceOnUse"><stop offset="0" stop-color="#636369"/><stop offset=".46" stop-color="#a9a9ae"/><stop offset=".82" stop-color="#d9d9de"/><stop offset="1" stop-color="#ebebf0"/></linearGradient><linearGradient id="h" x1="134.85" x2="148.24" y1="107.07" y2="110.16" gradientUnits="userSpaceOnUse"><stop offset="0" stop-color="#e6f0f5"/><stop offset=".1" stop-color="#c6e0eb"/><stop offset=".35" stop-color="#80bdd6"/><stop offset=".57" stop-color="#49a2c5"/><stop offset=".76" stop-color="#208eb9"/><stop offset=".9" stop-color="#0981b2"/><stop offset=".99" stop-color="#007caf"/></linearGradient><linearGradient id="i" x1="134.13" x2="144.05" y1="105.54" y2="114.81" gradientUnits="userSpaceOnUse"><stop offset="0" stop-color="#e6f0f5"/><stop offset=".33" stop-color="#90c5db"/><stop offset=".66" stop-color="#439ec3"/><stop offset=".89" stop-color="#1386b5"/><stop offset="1" stop-color="#007caf"/></linearGradient></defs><path fill="url(#a)" transform="translate(-112 -83)" d="M159.5 91.69l2.13-8.69h-4.72l-2.13 8.69"/><path fill="url(#b)" transform="translate(-112 -83)" d="M152.8 91.69l2.13-8.69H112l7.46 8.69"/><path fill="url(#c)" transform="translate(-112 -83)" d="M119.46 91.69L112 83v2.74l6.24 5.95"/><path fill="url(#d)" transform="translate(-112 -83)" d="M156.6 102.97l2.3-8.69h-4.73l-2.28 8.69"/><path fill="url(#e)" transform="translate(-112 -83)" d="M149.9 102.8l2.3-8.68h-28.63l7.61 8.69"/><path fill="url(#f)" transform="translate(-112 -83)" d="M131.18 102.8l-7.61-8.68v2.59l6.55 6.25"/><path fill="url(#g)" transform="translate(-112 -83)" d="M153.87 114.09l2.28-8.69h-4.72l-2.28 8.69"/><path fill="url(#h)" transform="translate(-112 -83)" d="M147.17 114.09l2.13-8.69h-14.16l7.61 8.69"/><path fill="url(#i)" transform="translate(-112 -83)" d="M142.9 114.09l-7.61-8.69v2.44l6.55 6.25"/><path fill="#3b3b41" d="M203.09 9.14c-.3 1.37-1.07 1.83-2.6 1.83h-4.56c-1.98 0-2.74.15-3.2.61-.45.46-.6 1.07-.6 1.83s.3 1.07 1.52 1.37l4.57 1.37c3.2.92 4.1 1.83 4.1 4.27 0 2.44-.9 6.25-2.28 8.08-1.37 1.67-3.04 2.43-5.63 2.43h-11.27c-.9 0-1.21-.6-1.06-1.37l1.37-5.64h1.37c.3 1.22 1.22 1.68 3.04 1.68h4.42c1.67 0 2.43-.3 2.9-.76.45-.46.75-1.37.75-1.98 0-1.07-.3-1.37-2.59-1.83l-4.56-1.22c-2.44-.61-3.5-1.98-3.5-3.96s.9-4.73 1.97-6.55c1.22-2.14 3.2-3.05 6.55-3.05h10.05zm-100.78 3.2c0 1.83-.77 5.03-1.37 6.25-.46.91-1.07 1.22-3.35 1.22H86.93l-.46 1.98c-.15.46-.15 1.07-.15 1.52 0 .92.3 1.68 1.07 2.14.6.45 1.82.6 3.8.6 4.26 0 5.18-.6 6.55-2.43h1.37l-.92 3.35c-.6 2.44-.76 2.9-1.67 3.35-1.22.61-3.5.92-7.16.92-3.34 0-5.48-.3-6.7-.92-1.82-.91-2.89-3.04-2.89-5.79 0-4.57 2.29-11.58 4.57-14.47 2.28-2.9 5.18-3.96 10.2-3.96 5.48-.16 7.92 1.82 7.77 6.24zm-8.83-1.83c-3.2 0-4.42 1.22-5.49 5.19h8.53c.3-1.22.46-1.83.46-2.6 0-1.82-1.07-2.59-3.5-2.59zm86.31 8.08c-.45.91-1.21 1.07-3.5 1.07h-10.65l-.46 1.98c-.15.46-.15 1.06-.15 1.52 0 .92.3 1.68 1.06 2.14.61.45 1.83.6 3.8.6 4.27 0 5.19-.6 6.56-2.43h1.37l-.92 3.35c-.6 2.44-.76 2.9-1.67 3.35-1.22.61-3.5.92-7.16.92-3.35 0-5.48-.3-6.7-.92-1.82-.91-2.89-3.05-2.89-5.79 0-4.57 2.28-11.58 4.57-14.48 2.28-2.89 5.17-3.96 10.2-3.96 5.63 0 8.07 1.98 7.91 6.4 0 1.83-.76 5.03-1.37 6.25zm-7.45-8.08c-3.2 0-4.42 1.22-5.49 5.19h8.53c.3-1.22.46-1.83.46-2.6 0-1.82-1.07-2.59-3.5-2.59zM80.69 1.37s-6.7 26.06-7 26.67c-.16.6-.61 1.98.6 2.28l-.15.92h-6.85c-.91 0-1.22-.76-1.07-1.37l3.5-13.41h-9.28l-2.9 11.58c-.15.6-.6 1.98.62 2.28l-.16.92h-6.85c-.91 0-1.21-.76-1.06-1.37 0 0 5.93-22.56 6.85-26.67.15-.61.6-1.98-.61-2.29l.15-.91h6.85c.92 0 1.22.61 1.07 1.37l-2.59 10.06h9.29s1.82-6.86 2.13-8.23c.15-.61.6-1.98-.61-2.29l.15-.91h6.85c.76 0 1.22.61 1.07 1.37zm71.85 4.73c4.72 0 4.72 3.35 4.42 5.33-.15.76-4.26 17.22-4.26 17.22-.16.6-.16.91-.16 1.06 0 .3.16.77.77.92l-.16.91h-6.09c-.91 0-1.21-.76-1.06-1.37 0 0 4.1-16.3 4.1-16.46.31-1.21-.14-2.28-1.97-2.28h-1.22c-1.83.3-2.59.6-3.5 3.96l-3.5 13.1c-.15.61-.15.92-.15 1.07 0 .3.15.76.76.92l-.16.91h-6.08c-.92 0-1.22-.76-1.07-1.37 0 0 4.11-16.15 4.11-16.46.3-1.22-.3-2.28-1.98-2.28h-1.22c-1.82.3-2.74.6-3.5 3.96 0 .15-3.5 13.1-3.5 13.1-.15.61-.15.92-.15 1.07 0 .3.15.76.76.91l-.15.92h-6.1c-.9 0-1.21-.76-1.06-1.37l5.33-20.73c.15-.45.15-.6.15-.91 0-.46-.3-.92-.91-1.07l.3-.91h6.1c.9 0 1.21.76 1.06 1.37l-.61 2.13 1.37-1.83c.6-.76 1.22-1.82 3.8-1.82h3.05c3.35 0 4.42 1.98 4.26 3.96l1.22-1.98c1.07-1.68 1.98-1.98 3.65-1.98zm-34.1.15l4.87.15-.9 3.2c-.31 1.37-.92 1.83-2.75 1.83h-2.44c-2.74 0-3.5.6-4.26 3.66l-3.5 13.25c-.15.61-.15.92-.15 1.07 0 .3.15.76.76.91l-.15.92h-6.1c-.9 0-1.21-.76-1.06-1.37l5.33-20.73c.15-.6.15-.91.15-1.06 0-.3-.15-.77-.76-.92l.15-.91h6.1c.9 0 1.21.76 1.06 1.37l-.61 2.13 1.83-2.44c.76-1.06.91-1.06 2.43-1.06z"/></svg>