<svg id="cdr_layer2" xmlns="http://www.w3.org/2000/svg" viewBox="0 0 344.42 84.48"><title>logo</title><path d="M270.44-382.74q2.22.19,3.7.19t4.28-.1q2.89-.1,3.86-.1,5.74,0,8.45,1.7a6,6,0,0,1,2.71,5.49q0,8.53-13.52,8.53h-1.71q0,3.54.12,6.5t.39,5.47q-2-.15-2.87-.17l-1.34,0h-1.3q-.51,0-2.78.19,0-2.18.32-8.6.18-3.67.19-5.2,0-4.28-.09-7.57T270.44-382.74Zm7.78,13.5q3.93,0,5.65-1.41t1.71-4.67a5.32,5.32,0,0,0-1.28-3.94,5.61,5.61,0,0,0-4.07-1.26h-1.5a17.86,17.86,0,0,0-.51,4.54Zm18.85.8a13.06,13.06,0,0,1,5-10.9q5-3.94,14.07-3.94,8.61,0,13.26,3.77t4.65,10.65a12.56,12.56,0,0,1-5,10.44q-5,3.9-13.47,3.9-9,0-13.77-3.61T297.06-368.44Zm7.87-.42q0,5.66,2.85,8.77a10.09,10.09,0,0,0,7.85,3.12,10,10,0,0,0,7.75-3.1q2.85-3.1,2.85-8.79t-2.82-8.87a10,10,0,0,0-7.78-3.1,10.08,10.08,0,0,0-7.82,3.13Q304.93-374.56,304.93-368.86ZM368-359.8l-1.11,3.44a28.14,28.14,0,0,1-10.28,1.84q-8.61,0-13.4-3.8T338.41-369a12.41,12.41,0,0,1,5.14-10.4q5.14-3.9,13.84-3.9a31.1,31.1,0,0,1,10.88,2,24,24,0,0,0-1.25,4.89l-.69.08a6.12,6.12,0,0,0-3.15-3.35,12.75,12.75,0,0,0-5.83-1.2q-5.28,0-8.24,3.06t-3,8.64q0,6,3,9.06t8.75,3.1a17,17,0,0,0,4.91-.76,16.08,16.08,0,0,0,4.58-2.18Zm33.15,0L400-356.36a28.14,28.14,0,0,1-10.28,1.84q-8.61,0-13.4-3.8T371.56-369a12.41,12.41,0,0,1,5.14-10.4q5.14-3.9,13.84-3.9a31.1,31.1,0,0,1,10.88,2,24.06,24.06,0,0,0-1.25,4.89l-.69.08a6.11,6.11,0,0,0-3.15-3.35,12.74,12.74,0,0,0-5.83-1.2q-5.28,0-8.24,3.06t-3,8.64q0,6,3,9.06t8.75,3.1a17,17,0,0,0,4.91-.76,16.09,16.09,0,0,0,4.58-2.18Zm36.35-22.94q0,.23-.25,6.06t-.25,7.82q0,2.68,0,6.18t.46,7.63q-2-.15-2.87-.17l-1.34,0H432q-.51,0-2.78.27,0-2.18.32-8.6.19-3.67.19-5.2l-.14-5.35q-2.5,2.41-6.34,6.27Q420-364.58,417-361.4L410.92-355a7.58,7.58,0,0,0-2.17-.27,6.74,6.74,0,0,0-2,.27q0-2.19.32-8.63.19-3.68.19-5.21,0-4.29-.09-7.59t-.42-6.33a39.12,39.12,0,0,0,4.07.19h.56q.93,0,1.85,0t1.81-.15q0,1.64-.25,6.86t-.25,7q0,2.18.07,3t.21,1.89q5.14-4.51,9.63-9.14,4.12-4.25,8.75-9.67a5.13,5.13,0,0,0,1,.15q.58,0,1.27,0A10.37,10.37,0,0,0,437.49-382.74Zm39,0q0,.23-.25,6.06t-.25,7.82q0,2.68,0,6.18t.46,7.63q-2-.15-2.87-.17l-1.34,0H471q-.51,0-2.78.27,0-2.18.32-8.6.19-3.67.19-5.2l-.14-5.35q-2.5,2.41-6.34,6.27Q459-364.58,456-361.4L449.95-355a7.58,7.58,0,0,0-2.18-.27,6.74,6.74,0,0,0-2,.27q0-2.19.32-8.63.18-3.68.19-5.21,0-4.29-.09-7.59t-.42-6.33a39.12,39.12,0,0,0,4.07.19h.56q.93,0,1.85,0t1.81-.15q0,1.64-.26,6.86t-.25,7q0,2.18.07,3t.21,1.89q5.14-4.51,9.63-9.14,4.12-4.25,8.75-9.67a5.13,5.13,0,0,0,1,.15q.58,0,1.27,0A10.38,10.38,0,0,0,476.52-382.74Z" transform="translate(-133.76 438.28)" fill="#cc2128" fill-rule="evenodd"/><path d="M269.9-411.71q0-11,6.58-17.21t18.36-6.22q11.23,0,17.3,5.95t6.07,16.82q0,10.33-6.52,16.49t-17.57,6.16q-11.72,0-18-5.71T269.9-411.71Zm10.27-.66q0,8.94,3.71,13.86a12.11,12.11,0,0,0,10.24,4.92,12,12,0,0,0,10.12-4.89q3.71-4.89,3.71-13.89t-3.68-14a12,12,0,0,0-10.14-4.89,12.11,12.11,0,0,0-10.21,5Q280.17-421.37,280.17-412.37Zm55.15-2.78q1.21-.18,6.88-.18,6.89,0,10.51,3.5,3.44,3.32,3.44,9.12a10.8,10.8,0,0,1-4,8.91q-4,3.23-11.2,3.23-2.24,0-5.8-.15t-4.53-.15a49,49,0,0,0-5.44.3q0-3.44.42-13.59.24-5.8.24-8.21,0-6.76-.12-12t-.54-10q2.29,0,6.91.15t5.53.15q3,0,9.39-.15l6.73-.15q-.12.6-.18,1.12a11.53,11.53,0,0,0-.06,1.3,14.6,14.6,0,0,0,.09,1.48q.09.88.15,1.36-2.72-.3-7.46-.51t-8-.21q-.72,0-1.36,0a10.13,10.13,0,0,0-1.3.15q0,1.51-.15,4.14t-.15,2.75Zm.3,20.9,1.3.27a8.75,8.75,0,0,0,.94,0,7.84,7.84,0,0,0,6.07-2.32,9.4,9.4,0,0,0,2.14-6.61,9,9,0,0,0-2.24-6.52q-2.23-2.29-6.52-2.3h-2v8.39q0,1.51.15,4.77T335.62-394.25Zm44.64,3.68a11,11,0,0,0-1.66-.27l-.94,0a13,13,0,0,0-2.9.3q1.51-2.6,3.5-6.7.36-.72.91-1.93-3.8-8.09-8.52-17.51-5.68-11.35-9.12-17.57,1.21,0,3.26.15t2.48.15q1.33,0,2.17-.06,3.32-.24,3.62-.24,4.17,9.66,6.91,15.94t4,8.58a123.14,123.14,0,0,0,6-11.53q4.2-8.76,5.83-13,1,.18,1.51.24a15.16,15.16,0,0,0,1.63.06,11.7,11.7,0,0,0,1.6-.09l1.42-.21q-2.42,4.35-6.88,13-4.83,9.36-8.64,17.21Q381.77-394.49,380.26-390.57Zm28.94-43.72,7.61.3q1.75,0,4.71-.15t3.32-.15q14.19,0,14.19,10a9.33,9.33,0,0,1-3.47,7.46q-3.47,2.93-9.63,2.93v.3q7.19,0,10.69,2.63t3.5,8.24q0,5.86-4,9t-11.26,3.17q-2.66,0-5.8-.09l-5-.15-4.89.24q0-3.44.42-13.59.24-5.8.24-8.21,0-6.76-.12-12T409.2-434.29Zm10.39,40,1.3.27a8.75,8.75,0,0,0,.94,0,7.85,7.85,0,0,0,6.07-2.32,9.4,9.4,0,0,0,2.14-6.61q0-8.7-8.76-8.7h-1.93v8.27q0,1.21.12,4.71T419.58-394.25Zm-.24-21,1.21.12q9,0,9-8.45,0-7.25-7.88-7.25l-2.08.18c-.11,1.17-.17,2.32-.2,3.47s0,2.59,0,4.32Zm38.6-19.08q-.3,2.84-.48,8.85t-.18,10.18c.2,0,.48-.08.84-.12a13.12,13.12,0,0,1,1.39-.06q9.24,0,13.77,2.9,4.89,3.14,4.89,9.78,0,12.2-16.49,12.2-2.66,0-6-.15t-3.74-.15a47.9,47.9,0,0,0-4.83.3q0-3.44.42-13.59.24-5.8.24-8.21,0-6.76-.12-12t-.54-10a42.16,42.16,0,0,0,5.31.3h.72q1.21,0,2.42-.06A22.31,22.31,0,0,0,457.94-434.29Zm-.66,22.71v10.34a41.22,41.22,0,0,0,.54,7.18h2a8.52,8.52,0,0,0,6-2.08q2.27-2.08,2.27-6.13,0-5.25-2.45-7.28T457.28-411.58Z" transform="translate(-133.76 438.28)" fill="#cc2128" fill-rule="evenodd"/><path d="M178.9-418s-6,2.8-4.91,4.36c.47.68,1.58.86,2.91.79l-1,.21s-2.92,1-2.8,2,.84,1.88,5.31,1.48a68.35,68.35,0,0,0,12.85-2.36c2.31-.84,4.47-1.36,4-2.8s-4.19-1-6.59-.84a25.32,25.32,0,0,0-4.63.88l1.12.48s5.51-.64,6.43-.6,3.71-.08.48,1.08a82.73,82.73,0,0,1-12.73,3c-1.24,0-5,.56-2.47-.72s3.11-1.48,3.11-1.48l-1.44-.5c1.32-.2,2.69-.54,3.75-.82,2.63-.68,8.3-2.64,8.94-3.6s1.4-1.28.16-2.36-7.7.56-7.7.56l-1,1.28s5.71-.8,6.59-.8,2.87.24-.28,1.84-8.7,1.92-10.58,2.16-3.79.24-1.76-1a16.76,16.76,0,0,0,2.44-1.64Zm7.25,31a25.46,25.46,0,0,0,2.47-3.52s-5.94-12.44-10.86-14.58-6.73-.4-8.24,1.66a44.58,44.58,0,0,0-3.33,6.1l-1.43.4s3.41-9.67,7.69-10.94,9.83,2.22,12.92,7.13a59.62,59.62,0,0,1,4.68,9s5.55-3.25,7.13-5,3.33-5,2.61-6.5-4.91-5.78-4.91-5.78a14.92,14.92,0,0,1,7.21,6.5c4.9,9.81-9.07,14.43-14.75,18.44a22.12,22.12,0,0,0-8.07,9.77c-1.9,4.83-.49,8.87-10.77,12.2-10.45,3.38-27.29,6.36-33.28,3.68a6.84,6.84,0,0,1-1.43-4.87c.31-2.85,3.65-5,6.1-6.18a32,32,0,0,0,3.17-1.66l-.71,1.1s-5.31,2.7-4.36,4.84c2.1,4.71,20.88-.11,26.14-2.14,9.08-3.51,13-6.33,13.79-7.84a54.58,54.58,0,0,1,3.36-5.19c-5.5,4.46-28,16.18-35.53,12.48-3.56-1.74,1.5-6,1.5-6l.71-.4a7.92,7.92,0,0,0-.79,3c.49,3,11.68,0,21.63-4.84C177.58-380.39,185.21-386.36,186.15-386.95Zm-26.76,1.87s-7.13,6.95-4.44,8.4c3,1.63,28.09-8.71,30.59-11.73l1.9-2.3c.7-.84-11.06,6.47-20,9.53-6.09,2.09-12.36,2.91-9.19-1.37a38,38,0,0,0,2.14-3.17Z" transform="translate(-133.76 438.28)" fill="#cc2128" fill-rule="evenodd"/><path d="M199.88-414.7s2,7.22,4,6.3c.84-.4,1.25-1.61,1.42-3.1l0,1.19s.53,3.44,1.76,3.51,2.26-.59,2.65-5.66a77.48,77.48,0,0,0-.25-14.81c-.51-2.75-.69-5.25-2.4-4.94s-1.95,4.49-2.17,7.21a28.73,28.73,0,0,0,.12,5.34l.75-1.16s.31-6.28.53-7.3.6-4.17,1.3-.34a93.7,93.7,0,0,1,.94,14.79c-.23,1.38-.31,5.73-1.27,2.63s-1.08-3.76-1.08-3.76l-.83,1.51c0-1.52-.1-3.11-.21-4.35-.27-3.07-1.41-9.78-2.36-10.67s-1.17-1.8-2.61-.62-.81,8.72-.81,8.72l1.24,1.4s.17-6.53.33-7.51.8-3.17,2,.66.53,10.09.45,12.23-.44,4.28-1.45,1.78a18.86,18.86,0,0,0-1.38-3ZM235.95-417a29,29,0,0,0-3.47-3.42s-15,4.33-18.33,9.42-1.7,7.46.32,9.53a50.5,50.5,0,0,0,6.2,4.86l.18,1.67s-10.17-5.61-10.79-10.63,4.31-10.57,10.38-13.11a67.69,67.69,0,0,1,10.88-3.56s-2.6-6.81-4.25-8.91-5-4.65-6.78-4.13-7.38,4.42-7.38,4.42a16.91,16.91,0,0,1,8.61-6.85c11.88-3.66,14.44,12.84,17.87,19.93A25.09,25.09,0,0,0,248.81-407c5,3,9.83,2.2,11.63,14.32,1.83,12.31,2,31.7-2.08,37.9a7.75,7.75,0,0,1-5.71.7c-3.13-.88-4.9-5-5.77-8a36.4,36.4,0,0,0-1.27-3.85l1.1,1s2,6.44,4.6,5.77c5.66-1.47,3.77-23.37,2.48-29.63-2.23-10.81-4.66-15.69-6.2-16.89a62,62,0,0,1-5.17-4.72c4,7,12.88,34.28,7.33,42.06-2.61,3.66-6.45-2.81-6.45-2.81L243-372s2.13,1.44,3.22,1.45c3.41,0,2.16-13.07-1.38-25.08C241.68-406.22,236.42-415.86,235.95-417ZM233-386.75s6.44,9.26,8.56,6.53c2.39-3.08-4.5-33-7.41-36.39L232-419.16c-.81-.94,5.18,13.58,6.93,24.1,1.2,7.2.95,14.37-3.24,10a43.19,43.19,0,0,0-3.14-3Z" transform="translate(-133.76 438.28)" fill="#00acec" fill-rule="evenodd"/></svg>