<?xml version="1.0" encoding="UTF-8" standalone="no"?>
<svg width="16px" height="16px" viewBox="0 0 16 16" version="1.1" xmlns="http://www.w3.org/2000/svg" xmlns:xlink="http://www.w3.org/1999/xlink">
    <!-- Generator: Sketch 3.6.1 (26313) - http://www.bohemiancoding.com/sketch -->
    <title>post-icons</title>
    <desc>Created with Sketch.</desc>
    <defs>
        <path d="M8,16 C3.581722,16 0,12.418278 0,8 C0,3.58172 3.581722,0 8,0 C12.41828,0 16,3.58172 16,8 C16,12.418278 12.41828,16 8,16 Z M8,14.7 C11.70031,14.7 14.7,11.700308 14.7,8 C14.7,4.29969 11.70031,1.3 8,1.3 C4.299692,1.3 1.3,4.29969 1.3,8 C1.3,11.700308 4.299692,14.7 8,14.7 Z M7.248047,9.632812 L8.467285,9.632812 C8.470866,9.364256 8.505778,9.123455 8.572021,8.9104 C8.638265,8.697346 8.769856,8.501303 8.966797,8.322266 C9.138673,8.161132 9.305175,7.99821 9.466309,7.833496 C9.627442,7.668782 9.77067,7.496908 9.895996,7.317871 C10.02132,7.138834 10.12158,6.947267 10.19678,6.743164 C10.27197,6.539061 10.30957,6.318849 10.30957,6.08252 C10.30957,5.75667 10.25855,5.46485 10.15649,5.20703 C10.05444,4.94922 9.904949,4.7308 9.708008,4.55176 C9.511067,4.37272 9.27116,4.23665 8.988281,4.14355 C8.705402,4.05046 8.38314,4.00391 8.021484,4.00391 C7.692056,4.00391 7.386802,4.04777 7.105713,4.1355 C6.824624,4.22323 6.579347,4.35392 6.369873,4.52759 C6.160399,4.70125 5.995687,4.9161 5.875732,5.17212 C5.755777,5.42814 5.69401,5.72444 5.69043,6.061035 L6.995605,6.061035 C6.995605,5.88916 7.025146,5.74235 7.084229,5.62061 C7.143311,5.49886 7.221191,5.3986 7.317871,5.31982 C7.414551,5.24105 7.523762,5.18376 7.645508,5.14795 C7.767253,5.11214 7.892577,5.09424 8.021484,5.09424 C8.343752,5.09424 8.588134,5.18286 8.754639,5.36011 C8.921143,5.53735 9.004395,5.79427 9.004395,6.130859 C9.004395,6.284831 8.98112,6.424479 8.93457,6.549805 C8.888021,6.675131 8.824463,6.793294 8.743896,6.904297 C8.66333,7.0153 8.570232,7.123616 8.4646,7.229248 C8.358968,7.33488 8.245281,7.446777 8.123535,7.564941 C7.962402,7.722494 7.826335,7.871093 7.715332,8.010742 C7.604329,8.150391 7.513916,8.298095 7.444092,8.453857 C7.374267,8.60962 7.324138,8.781493 7.293701,8.969482 C7.263265,9.157472 7.248047,9.378579 7.248047,9.632812 Z M7.156738,11.303223 C7.156738,11.500164 7.220296,11.664876 7.347412,11.797363 C7.474529,11.929851 7.656249,11.996094 7.892578,11.996094 C8.128907,11.996094 8.311523,11.929851 8.44043,11.797363 C8.569337,11.664876 8.633789,11.500164 8.633789,11.303223 C8.633789,11.202962 8.616781,11.109864 8.582764,11.023926 C8.548747,10.937988 8.500407,10.862793 8.437744,10.79834 C8.375081,10.733886 8.298096,10.683757 8.206787,10.647949 C8.115478,10.612142 8.010743,10.594238 7.892578,10.594238 C7.774413,10.594238 7.669678,10.612142 7.578369,10.647949 C7.48706,10.683757 7.410075,10.733886 7.347412,10.79834 C7.284749,10.862793 7.237305,10.937988 7.205078,11.023926 C7.172851,11.109864 7.156738,11.202962 7.156738,11.303223 Z" id="path-1"></path>
    </defs>
    <g id="Page-1" stroke="none" stroke-width="1" fill="none" fill-rule="evenodd">
        <mask id="mask-2" fill="white">
            <use xlink:href="#path-1"></use>
        </mask>
        <use id="question-circle-o" fill="#0055A6" xlink:href="#path-1"></use>
    </g>
</svg>