<svg width="56" height="56" viewBox="0 0 56 56" fill="none" xmlns="http://www.w3.org/2000/svg">
<path d="M26.5904 27.7222C27.2169 26.8848 27.363 25.7784 26.3992 25.1234C25.7036 25.9521 25.6905 27.0441 26.5904 27.7222Z" fill="#2051A8"/>
<path d="M27.0821 25.5846C27.23 24.8321 27.352 24.0734 27.3673 23.3056C26.6236 23.8665 26.1642 24.9279 27.0821 25.5846Z" fill="#2051A8"/>
<path d="M28.704 26.3633C28.3023 26.1262 27.8193 26.1853 27.3731 26.1524C27.3578 26.8293 27.6487 27.4291 28.0945 27.9226C28.3408 27.433 28.8243 26.957 28.704 26.3633Z" fill="#2051A8"/>
<path d="M24.9576 28.2441C25.2573 28.7578 25.5863 29.2513 25.9582 29.7163C26.5759 28.8859 26.6017 27.8635 25.795 27.1504C25.5145 27.5135 25.2363 27.881 24.9576 28.2441Z" fill="#2051A8"/>
<path d="M25.3229 31.4803C25.8164 30.6797 25.7989 29.6861 25.1011 29.0058C24.6488 29.8121 24.6076 30.8105 25.3229 31.4803Z" fill="#2051A8"/>
<path d="M21.7061 36.2298C21.6913 36.3252 21.665 36.5146 21.6519 36.6104C22.3243 36.743 22.9701 36.9889 23.646 37.1039C23.1914 36.4884 22.3917 36.4039 21.7061 36.2298Z" fill="#2051A8"/>
<path d="M27.4693 29.8471C28.0022 28.9297 28.0236 27.7922 27.0847 27.1333C26.6236 28.0507 26.6735 29.1384 27.4693 29.8471Z" fill="#2051A8"/>
<path d="M25.1208 25.3172C24.4011 25.889 24.5621 26.8791 24.9099 27.6115C25.7709 27.5852 25.9254 25.6694 25.1208 25.3172Z" fill="#2051A8"/>
<path d="M25.7557 33.0089C26.306 32.4201 26.1778 31.5892 25.9797 30.8844C25.323 31.2952 24.9428 32.746 25.7557 33.0089Z" fill="#2051A8"/>
<path d="M26.1691 34.612C26.6105 34.0358 26.4429 33.3375 26.2189 32.7136C25.5793 33.229 25.1164 34.2685 26.1691 34.612Z" fill="#2051A8"/>
<path d="M28.1501 23.9667C28.5876 23.4623 28.6418 22.5334 27.9409 22.2338C27.5476 22.7574 27.4238 23.66 28.1501 23.9667Z" fill="#2051A8"/>
<path d="M27.9479 26.0894C28.5351 25.6217 28.7306 24.9191 28.7332 24.1929C27.2694 23.5668 27.1324 25.2761 27.9479 26.0894Z" fill="#2051A8"/>
<path d="M25.8515 25.7197C26.2583 24.906 26.6166 24.0236 26.4469 23.0947C26.1061 23.8993 25.0814 24.8889 25.8515 25.7197Z" fill="#2051A8"/>
<path d="M32.963 32.1611C32.7342 32.8829 32.9017 33.6359 33.1179 34.3381C33.7846 33.4749 34.0966 32.4026 34.0309 31.3176C33.8096 31.794 33.6289 32.2875 33.4701 32.7876C33.3279 32.5482 33.3502 32.0871 32.963 32.1611Z" fill="#2051A8"/>
<path d="M25.7688 22.7706C26.5493 22.2403 26.593 21.3006 26.3642 20.4654C25.6187 21.0026 25.6926 21.9572 25.7688 22.7706Z" fill="#2051A8"/>
<path d="M31.8447 27.6203C30.8078 28.8098 31.9313 30.1735 32.4476 31.3237C33.2955 30.0751 33.2303 28.4467 31.8447 27.6203Z" fill="#2051A8"/>
<path d="M27.9934 29.3514C27.4063 30.1101 27.3954 31.0152 28.0022 31.7629C28.7359 31.0564 28.7455 30.0541 27.9934 29.3514Z" fill="#2051A8"/>
<path d="M30.3748 33.2093C30.9663 32.4804 30.9081 31.4344 30.1114 30.8862C29.8345 31.6719 29.9416 32.5001 30.3748 33.2093Z" fill="#2051A8"/>
<path d="M30.7663 31.374C31.6339 30.8499 31.3613 29.7491 30.9903 29.0036C30.3905 29.6494 30.1814 30.6429 30.7663 31.374Z" fill="#2051A8"/>
<path d="M32.3509 34.9834C31.9226 34.4396 31.4296 33.8721 30.702 33.7676C30.5463 34.7292 31.7061 34.7834 32.3509 34.9834Z" fill="#2051A8"/>
<path d="M31.1382 28.2419C30.8555 27.8766 30.5755 27.5091 30.2916 27.146C29.5089 27.8701 29.5216 28.8816 30.1337 29.7119C30.5086 29.2513 30.8402 28.7578 31.1382 28.2419Z" fill="#2051A8"/>
<path d="M31.6186 26.0177C31.6536 26.355 31.6894 26.6958 31.727 27.0353C31.5765 27.3311 31.433 27.629 31.3 27.9335C32.0486 27.5179 32.4577 26.7632 32.7447 25.9893C32.3689 25.9958 31.9931 26.0068 31.6186 26.0177Z" fill="#2051A8"/>
<path d="M32.0994 23.7427C31.5516 23.3209 30.9837 22.9294 30.4207 22.5312C30.4745 23.4255 31.1448 24.4191 32.0994 23.7427Z" fill="#2051A8"/>
<path d="M31.1859 27.6356C31.5289 26.8677 31.745 25.6891 30.7812 25.2822C30.3682 25.9652 30.2571 27.4312 31.1859 27.6356Z" fill="#2051A8"/>
<path d="M30.0353 23.1249C30.3656 24.1561 30.8206 25.5802 32.0723 25.7171C33.012 25.676 32.9775 24.5713 33.012 23.8884C32.0128 25.2214 30.7856 24.0581 30.0353 23.1249Z" fill="#2051A8"/>
<path d="M26.6385 29.1948C25.6839 29.7124 25.9337 30.9019 26.4976 31.6177C27.2195 31.017 27.3739 29.8471 26.6385 29.1948Z" fill="#2051A8"/>
<path d="M29.0093 27.1307C28.0674 27.7939 28.0936 28.9314 28.6265 29.8493C29.418 29.134 29.4722 28.0507 29.0093 27.1307Z" fill="#2051A8"/>
<path d="M30.3292 22.7776C30.3984 21.9643 30.4745 21.0074 29.7329 20.4636C29.498 21.301 29.533 22.2534 30.3292 22.7776Z" fill="#2051A8"/>
<path d="M27.2952 30.9999C26.4237 31.7174 26.3301 32.8549 26.9194 33.7833C27.7239 33.0658 27.8911 31.9086 27.2952 30.9999Z" fill="#2051A8"/>
<path d="M15.3781 27.6181C16.6394 27.818 17.979 27.3656 18.5509 26.1546C17.3136 25.9564 15.7417 26.2111 15.3781 27.6181Z" fill="#2051A8"/>
<path d="M29.6874 25.1282C28.7363 25.7871 28.857 26.8831 29.4971 27.7161C30.4294 27.0567 30.3983 25.9459 29.6874 25.1282Z" fill="#2051A8"/>
<path d="M30.2422 25.7176C31.0166 24.8867 29.9788 23.8971 29.6327 23.0947C29.4892 24.0236 29.8344 24.9042 30.2422 25.7176Z" fill="#2051A8"/>
<path d="M28.7245 23.3083C28.756 24.0739 28.8719 24.8347 29.0089 25.5894C29.9289 24.9327 29.4696 23.8648 28.7245 23.3083Z" fill="#2051A8"/>
<path d="M40.2447 38.9721C40.687 37.7217 39.9814 36.4823 39.6602 35.2949C39.1344 35.8015 38.5792 36.2797 37.9846 36.7041C38.4904 37.2063 38.8972 37.793 39.2328 38.4221C38.0599 37.3415 35.882 37.4894 35.5897 39.3072C35.1378 38.4243 34.849 37.2435 33.827 36.8607C33.7203 36.9736 33.5072 37.1976 33.4 37.3109C33.2303 37.1997 33.0654 37.0891 32.8995 36.9801C33.474 36.8301 34.0454 36.6804 34.6132 36.5019C33.8844 36.0474 33.1091 36.652 32.4056 36.8672C32.0228 36.4197 31.5905 36.0194 31.1167 35.6733C30.4443 35.0429 29.6769 34.5275 28.9021 34.034C29.1305 34.706 29.295 35.6628 30.131 35.8194C30.849 35.9651 31.5835 36.2132 31.906 36.9355C31.6251 37.0987 31.3447 37.268 31.0712 37.4395C31.5967 37.5462 32.1274 37.4636 32.63 37.2811C34.3735 38.1487 35.2826 39.8536 36.0027 41.5712C35.8745 42.3111 36.2696 42.7674 37.0155 42.8614C36.855 42.5631 36.694 42.2699 36.5308 41.9781C36.6034 41.9046 36.6712 41.8281 36.729 41.7476C36.8882 42.3776 37.2776 42.91 37.9964 42.8326C38.2322 42.0586 37.222 41.9803 36.7312 41.7428C36.8777 41.5384 36.9534 41.3101 36.8309 41.0449C37.4233 40.8953 38.0069 40.7207 38.5901 40.5317C37.9745 39.6948 37.0199 40.1769 36.2915 40.5471C35.1041 39.5207 36.8305 37.5721 38.0918 38.2703C38.916 38.6291 39.2726 39.7906 38.7025 40.5125C38.272 40.8887 37.6705 40.978 37.1595 41.2042C38.7883 41.9388 39.7329 40.2273 40.2447 38.9721Z" fill="#2051A8"/>
<path d="M39.6602 21.357C42.7634 19.8979 45.9585 16.6639 44.8879 12.9325C42.8584 14.6659 41.1429 16.9317 40.3252 19.4871C41.5406 18.5329 42.1304 16.9798 43.4722 16.1599C42.8291 18.3387 40.3305 19.1887 39.6602 21.357Z" fill="#2051A8"/>
<path d="M37.4898 29.6647C38.1093 30.6434 39.0876 31.4195 39.3251 32.6095C38.4243 32.0246 38.0979 30.8284 37.0703 30.4281C37.7204 31.9616 38.6076 33.5947 40.3174 34.1101C40.2176 32.3089 39.221 30.3651 37.4898 29.6647Z" fill="#2051A8"/>
<path d="M41.0944 21.0201C39.8401 21.392 38.6103 21.9769 37.7388 22.9819C39.2888 23.7536 40.7663 22.5313 41.0944 21.0201Z" fill="#2051A8"/>
<path d="M37.5064 34.5787C37.8866 33.1218 37.499 31.5429 36.4477 30.4601C36.582 31.2799 36.7854 32.0911 36.8169 32.9289C36.1966 32.0609 36.2665 30.9369 35.7923 30.0059C35.5766 31.6671 35.805 33.768 37.5064 34.5787Z" fill="#2051A8"/>
<path d="M39.5124 34.9466C39.6826 34.4685 39.0473 34.2029 38.6947 34.4251C37.9886 34.7817 36.9915 35.5364 37.3428 36.4258C38.3036 36.6144 39.0972 35.7101 39.5124 34.9466Z" fill="#2051A8"/>
<path d="M40.7566 23.3927C39.63 23.3122 37.9982 23.0751 37.7768 24.5757C38.8999 24.7454 40.3134 24.6431 40.7566 23.3927Z" fill="#2051A8"/>
<path d="M40.7312 27.6202C40.3611 26.2133 38.7804 25.9499 37.5449 26.159C38.1259 27.3682 39.4625 27.818 40.7312 27.6202Z" fill="#2051A8"/>
<path d="M38.1994 25.6305C39.1527 26.3545 40.523 26.2264 41.3945 25.4371C40.4823 24.6584 38.8649 24.3994 38.1994 25.6305Z" fill="#2051A8"/>
<path d="M39.5237 28.2573C38.818 27.4461 37.7562 27.0808 36.7211 27.4418C36.869 27.6504 37.0252 27.8635 37.1774 28.0748C36.9425 28.3312 36.7102 28.5924 36.4853 28.8575C37.0663 29.3252 37.7501 29.6647 38.5192 29.6253C38.297 29.2425 38.0712 28.8684 37.8249 28.5031C38.3976 28.4681 38.965 28.3876 39.5237 28.2573Z" fill="#2051A8"/>
<path d="M38.8561 41.6798C38.3119 41.4689 37.7248 41.4212 37.149 41.3949C37.4338 42.0057 38.8102 42.7862 38.8561 41.6798Z" fill="#2051A8"/>
<path d="M15.8003 19.5759C14.9958 16.9859 13.265 14.6807 11.2053 12.9386C10.9813 14.3198 10.8448 15.855 11.6533 17.0835C12.8258 18.8821 14.4196 20.4999 16.4203 21.35C15.768 19.1712 13.2458 18.3317 12.6166 16.1394C13.965 17.0056 14.6068 18.5496 15.8003 19.5759Z" fill="#2051A8"/>
<path d="M35.8186 42.1098C35.7984 42.0166 35.7617 41.8338 35.7442 41.7401C34.6238 41.5577 33.4933 41.4295 32.4056 41.0922C32.6756 40.6639 32.9516 40.2373 33.2259 39.8112C33.4154 39.8374 33.6035 39.8633 33.7956 39.8917C33.7864 39.4638 33.7785 39.0351 33.7719 38.6085C33.4696 38.7109 33.1686 38.8154 32.8711 38.9218C32.0031 41.0751 30.3437 42.7949 29.0412 44.6933C28.3583 43.5645 27.7747 42.3793 27.0791 41.2593C26.4355 42.1509 25.8422 43.0771 25.2529 44.0059C25.1024 44.0344 24.8023 44.0886 24.6522 44.1171C24.6501 44.5283 24.6501 44.9391 24.6501 45.3521C25.0351 45.2174 25.4179 45.0844 25.8055 44.9518C25.5268 43.8948 26.5751 43.1576 27.0423 42.3312C27.7187 43.4516 28.315 44.6171 29.0019 45.7301C30.0659 44.3319 31.0682 42.8881 32.0832 41.4527C33.2955 41.8141 34.5437 42.1295 35.8186 42.1098Z" fill="#2051A8"/>
<path d="M30.6618 19.8804C30.8079 19.8979 31.0966 19.9347 31.2393 19.9522C31.0358 20.1827 30.8333 20.4155 30.6307 20.6482C30.7116 21.0048 30.7908 21.3592 30.8766 21.7179C31.1837 21.035 31.4878 20.3477 31.8229 19.6779C31.7262 19.6932 31.5337 19.7234 31.4375 19.7365C31.675 19.4211 31.9117 19.1039 32.1383 18.7775C31.5407 18.9866 31.0468 19.3826 30.6618 19.8804Z" fill="#2051A8"/>
<path d="M17.6286 29.421C16.7458 30.0099 16.002 30.7996 15.0325 31.2519C15.6713 30.0794 17.0245 29.6271 17.805 28.5836C17.2305 28.6838 16.674 28.8579 16.1372 29.0776C16.2873 28.8426 16.4373 28.6099 16.5848 28.3749C15.6411 28.9642 14.7556 29.6839 13.6732 30.0081C14.2188 29.1077 15.2364 28.7468 16.0716 28.1903C14.0556 28.6558 11.7657 29.6647 11.3002 31.9156C13.3096 31.9244 14.5451 30.2431 16.0235 29.1821C14.9428 30.3936 13.5966 31.5656 13.4965 33.3165C15.5483 32.9897 16.5808 30.9802 17.6286 29.421Z" fill="#2051A8"/>
<path d="M27.0887 45.7441C27.5122 45.1566 27.8736 44.4977 27.8298 43.7478C27.5625 44.0129 27.3057 44.2916 27.0511 44.5699C26.7685 44.3069 26.4902 44.0414 26.1861 43.8086C25.7928 44.5349 26.7628 45.1548 27.0887 45.7441Z" fill="#2051A8"/>
<path d="M31.4269 45.3915C31.4318 44.9654 31.4344 44.541 31.4361 44.1149C31.1146 44.0344 30.7943 43.9539 30.4754 43.8734C30.1057 44.7353 30.6163 45.1981 31.4269 45.3915Z" fill="#2051A8"/>
<path d="M28.0695 38.2113C27.3481 39.1523 26.5212 40.0072 25.7232 40.8818C27.2059 40.1485 28.9135 40.1446 30.3944 40.8883C29.5947 40.0181 28.7481 39.1829 28.0695 38.2113Z" fill="#2051A8"/>
<path d="M18.858 36.5299C18.8794 35.308 17.7424 34.1141 16.481 34.4356C16.7046 35.5814 17.6815 36.4752 18.858 36.5299Z" fill="#2051A8"/>
<path d="M20.3066 29.9517C19.8214 30.8997 19.8559 32.0302 19.2601 32.9311C19.2841 32.0959 19.4823 31.2847 19.628 30.4671C18.5517 31.5372 18.2319 33.1332 18.5973 34.5796C20.2628 33.7225 20.5043 31.6194 20.3066 29.9517Z" fill="#2051A8"/>
<path d="M15.774 34.1071C17.4877 33.6004 18.3811 31.9673 19.0102 30.4233C17.9987 30.8516 17.6614 32.0259 16.7637 32.6152C17.0008 31.4799 17.9073 30.7103 18.4966 29.7666C16.796 30.4211 15.8913 32.3741 15.774 34.1071Z" fill="#2051A8"/>
<path d="M21.1999 28.7862C20.1298 29.3449 20.6802 30.9085 21.3916 31.5914C21.3347 32.1134 21.2459 32.6309 21.0958 33.1358C20.9786 32.3964 20.9265 31.6418 20.6723 30.9326C20.433 32.1633 20.3389 33.5488 21.1024 34.6273C21.5263 33.5357 21.7831 32.3527 21.5784 31.1828C21.6479 30.3931 22.1585 29.2101 21.1999 28.7862Z" fill="#2051A8"/>
<path d="M47.233 16.0204C45.6002 16.8205 44.3056 18.1169 43.0133 19.365C42.34 20.0506 41.2983 20.5699 41.2353 21.6462C41.0677 21.8855 40.8962 22.1226 40.7313 22.3637C42.8685 21.92 44.8757 20.8394 46.3938 19.2692C47.2176 18.4039 47.2719 17.1469 47.233 16.0204Z" fill="#2051A8"/>
<path d="M19.4469 29.0036C19.3121 28.6685 19.1559 28.3447 18.9796 28.0315C19.0776 27.7966 19.1756 27.5594 19.2754 27.3245C18.3251 27.1985 17.2725 27.3656 16.6898 28.2096C17.1728 28.4812 17.7275 28.4983 18.2665 28.4966C18.0294 28.8641 17.8032 29.2381 17.5879 29.6209C18.0552 29.547 18.5211 29.4643 18.984 29.3685C18.8729 29.7294 18.7644 30.0882 18.6664 30.4539C19.7404 30.3104 20.7104 29.6428 20.8018 28.4878C20.3433 28.6379 19.8905 28.812 19.4469 29.0036Z" fill="#2051A8"/>
<path d="M17.8986 25.6305C17.2287 24.4059 15.6087 24.6518 14.6996 25.4415C15.5763 26.2264 16.9417 26.3524 17.8986 25.6305Z" fill="#2051A8"/>
<path d="M18.3203 24.5691C18.0897 23.1468 16.5392 23.2426 15.4367 23.408C15.6541 24.7148 17.2987 24.7043 18.3203 24.5691Z" fill="#2051A8"/>
<path d="M15.0023 21.0223C15.3217 22.523 16.8766 23.8516 18.3816 22.8773C17.4024 22.0225 16.2544 21.3723 15.0023 21.0223Z" fill="#2051A8"/>
<path d="M35.0004 22.8773C33.9539 23.9361 35.8094 25.2324 35.2551 26.3764C34.3109 27.2374 32.5951 26.0632 32.1033 27.5769C32.3282 27.7029 32.5509 27.8316 32.7775 27.9597C32.8431 28.2774 32.9083 28.595 32.9757 28.9144C33.3064 28.7057 33.6346 28.4944 33.9631 28.2791C35.1334 28.8969 33.8074 30.4189 34.6832 31.3561C35.6427 31.1426 35.3907 29.8567 35.4541 29.1034C35.8146 29.9101 36.6183 30.4006 37.5449 30.4552C37.2151 29.4267 36.3777 28.6199 35.2787 28.4939C35.3089 28.7031 35.3657 28.8973 35.4436 29.0771C35.3062 29.0036 35.0429 28.8684 34.9094 28.7984C34.979 28.5372 35.0486 28.2787 35.1194 28.0219C35.5477 28.2502 35.9765 28.4917 36.4398 28.6571C36.6157 28.1763 36.5789 27.6631 36.5531 27.1631C36.9862 27.1652 37.4185 27.1631 37.856 27.1565C37.6762 26.7759 37.4937 26.3996 37.3056 26.0234C37.7234 25.7298 38.1351 25.4275 38.5411 25.1186C38.1907 24.9121 37.8411 24.7117 37.4885 24.5162C37.7506 24.0704 38.0021 23.618 38.2436 23.1612C37.7261 23.1569 37.2129 23.1634 36.7001 23.1809C37.5567 22.3156 37.9763 21.1347 37.9369 19.9233C37.1464 21.0875 36.085 22.001 35.0004 22.8773Z" fill="#2051A8"/>
<path d="M27.4194 40.5794C27.7782 41.3862 28.2634 41.2864 28.6982 40.5904C28.2699 40.5794 27.8456 40.5746 27.4194 40.5794Z" fill="#2051A8"/>
<path d="M35.0267 33.1113C34.8421 32.4914 34.6763 31.8649 34.4571 31.2585C34.3613 32.4047 34.5857 33.5466 34.9808 34.6207C35.7709 33.5549 35.6475 32.1632 35.4135 30.9365C35.1658 31.6369 35.105 32.3785 35.0267 33.1113Z" fill="#2051A8"/>
<path d="M37.6727 22.5138C39.2166 21.8094 40.5024 20.2523 40.1936 18.4625C38.3836 18.9674 38.0472 20.9506 37.6727 22.5138Z" fill="#2051A8"/>
<path d="M29.2132 35.7884C28.5438 37.2649 29.7815 38.9808 31.3119 39.1571C30.7786 38.2108 29.6822 37.7042 29.3457 36.6367C30.0396 37.2151 30.653 37.9286 31.5337 38.2327C30.9334 37.2671 29.9679 36.6209 29.2132 35.7884Z" fill="#2051A8"/>
<path d="M29.064 42.4143C29.3654 42.7407 29.6769 43.0605 30.0015 43.3672C30.0405 42.5232 29.5058 41.8692 28.9966 41.2667C28.5661 41.8735 28.2117 42.5561 28.2857 43.3282C28.5503 43.0299 28.8093 42.7258 29.064 42.4143Z" fill="#2051A8"/>
<path d="M28.0783 36.3361C27.7913 35.7617 27.4689 35.2008 27.0646 34.7029C26.9885 35.6099 27.3455 36.4538 27.5144 37.3257C26.9251 38.8111 25.6161 39.8134 24.4484 40.8292C24.5118 40.8817 24.64 40.9881 24.7052 41.0401C25.8991 40.4792 26.7343 39.4069 27.4146 38.3106C27.6085 37.9151 28.1807 37.6211 28.487 38.0734C29.3611 39.1869 30.1503 40.8769 31.7555 40.9487C30.573 39.8698 29.1804 38.8675 28.5758 37.3236C28.7416 36.449 29.1091 35.6099 29.0277 34.7007C28.5955 35.1711 28.3089 35.7446 28.0783 36.3361Z" fill="#2051A8"/>
<path d="M34.0651 28.4598C33.0755 29.4145 32.8755 30.8346 32.603 32.1156C34.1565 31.6391 34.3788 29.8235 34.0651 28.4598Z" fill="#2051A8"/>
<path d="M19.8516 14.6742C19.9758 15.6835 20.1823 16.6814 20.4151 17.6706C20.8648 16.7707 20.9326 14.9524 19.8516 14.6742Z" fill="#2051A8"/>
<path d="M23.8075 15.0115C24.3596 14.714 24.1356 14.1549 23.8031 13.7764C23.4548 14.1479 23.2658 14.7136 23.8075 15.0115Z" fill="#2051A8"/>
<path d="M22.6244 15.2119C22.8265 15.7181 22.9202 16.5121 23.6114 16.5581C23.6245 15.8988 23.2724 15.3794 22.6244 15.2119Z" fill="#2051A8"/>
<path d="M24.014 16.5056C24.6645 16.5904 24.7774 15.6726 24.9905 15.2333C24.3705 15.3856 23.9724 15.8572 24.014 16.5056Z" fill="#2051A8"/>
<path d="M21.7061 16.6294C22.0347 15.8336 22.3479 15.0111 22.3479 14.1374C21.7153 14.7508 20.7909 15.8554 21.7061 16.6294Z" fill="#2051A8"/>
<path d="M20.9366 17.5822C20.8994 17.9821 21.0061 18.3737 21.0871 18.7631C21.7464 18.6979 22.4092 18.6716 23.0703 18.6349C22.7334 19.0851 22.5024 19.6004 22.3956 20.153C23.1245 19.705 23.968 18.7959 24.7748 19.6179C24.6444 19.6354 24.3854 19.67 24.255 19.6897C24.6138 20.3639 24.9248 21.0617 25.2858 21.7359C25.473 21.0792 25.3969 20.4159 24.9139 19.9089C25.0399 19.9023 25.2923 19.8874 25.4205 19.8804C24.8596 18.9647 23.7173 18.8541 22.9434 18.2017C22.3567 17.8233 21.6655 17.0122 20.9366 17.5822Z" fill="#2051A8"/>
<path d="M20.4041 14.805C21.0258 14.6851 21.5981 14.385 21.97 13.8591C21.3063 13.8981 20.6977 14.1811 20.4041 14.805Z" fill="#2051A8"/>
<path d="M23.6245 15.2508C23.1765 16.4272 24.8556 15.1812 23.6245 15.2508V15.2508Z" fill="#2051A8"/>
<path d="M22.5133 17.1776C22.172 17.8189 23.2395 17.2187 22.5133 17.1776V17.1776Z" fill="#2051A8"/>
<path d="M28.5679 12.1887C28.3377 11.9626 28.1041 11.7386 27.8696 11.5167C27.2584 12.1625 27.9497 12.8887 28.5679 12.1887Z" fill="#2051A8"/>
<path d="M28.9113 14.1133C28.8444 13.7782 28.7744 13.4435 28.7066 13.1106C28.5193 13.7152 28.3911 14.3351 28.2997 14.9612C28.4126 14.8461 28.5302 14.7328 28.6475 14.6221C29.3654 16.0641 29.7854 13.9676 29.9241 13.2519C29.6345 13.2234 29.3484 13.1976 29.0627 13.1714C29.0093 13.4846 28.9586 13.7979 28.9113 14.1133Z" fill="#2051A8"/>
<path d="M28.5066 15.8073C28.8457 16.5904 29.6327 16.9142 30.4395 16.9794C30.0694 16.2247 29.2941 15.9031 28.5066 15.8073Z" fill="#2051A8"/>
<path d="M24.2751 16.7274C24.09 16.5231 23.7007 16.5296 23.5244 16.7361C23.4915 17.0988 24.2987 17.0774 24.2751 16.7274Z" fill="#2051A8"/>
<path d="M27.9283 12.6197C27.3936 13.1548 27.8005 13.8548 27.9873 14.4419C28.3264 13.8784 28.8571 12.9172 27.9283 12.6197Z" fill="#2051A8"/>
<path d="M22.7828 17.062C22.9766 18.2888 24.2725 19.0063 25.4118 18.5019C26.4836 17.9668 26.8708 19.5068 27.6146 19.9828C27.384 20.6482 27.6172 21.2918 27.993 21.8509C28.2651 21.4616 28.5644 21.0748 28.6935 20.6093C28.1868 19.9176 27.5577 19.3239 26.9448 18.728C27.0751 18.6257 27.2055 18.5237 27.3381 18.4235C27.0533 18.2757 26.7706 18.13 26.488 17.9865C26.569 17.6671 26.6468 17.3451 26.7269 17.0253C25.4166 17.1688 24.0966 17.1815 22.7828 17.062Z" fill="#2051A8"/>
<path d="M25.669 16.9816C26.467 16.9098 27.2409 16.5834 27.587 15.8117C26.7995 15.9053 26.0168 16.2137 25.669 16.9816Z" fill="#2051A8"/>
<path d="M27.2563 14.0722C27.0909 13.5459 26.8017 13.0567 26.1691 13.1241C26.3213 13.9265 26.3909 14.9314 27.2432 15.3182C27.2716 14.9726 27.2978 14.6265 27.3237 14.2831C27.4672 14.5416 27.6128 14.8006 27.7673 15.057C27.7393 14.3828 27.6063 13.7196 27.3433 13.0974C27.3083 13.4221 27.2803 13.7458 27.2563 14.0722Z" fill="#2051A8"/>
<path d="M42.6007 33.3266C42.2726 31.1518 40.4797 28.9533 38.2795 28.5836C39.0718 29.6192 40.4176 30.0799 41.0607 31.2502C40.0925 30.7956 39.3448 30.0173 38.4707 29.4214C39.5124 30.9868 40.5571 32.9853 42.6007 33.3266Z" fill="#2051A8"/>
<path d="M40.0282 28.1881C40.8634 28.749 41.8766 29.1209 42.4331 30.0147C41.5564 29.7233 40.7916 29.2014 39.9761 28.7818C41.2217 30.2452 42.7398 31.8307 44.7926 31.92C44.3345 29.6647 42.0394 28.6619 40.0282 28.1881Z" fill="#2051A8"/>
<path d="M18.1077 42.3124C18.1143 42.4279 18.1269 42.6541 18.1318 42.7691C18.9341 42.8772 20.0642 42.763 20.0891 41.9409C21.4108 42.2905 22.7421 41.7948 24.01 41.4448C24.493 42.1124 24.8579 42.9345 25.6213 43.3344C25.4756 41.7948 23.9208 40.8988 23.4443 39.4677C23.3314 38.9108 22.785 38.7411 22.3309 38.5437C22.3156 38.9891 22.3068 39.4376 22.3011 39.8856C22.4879 39.8593 22.6769 39.8352 22.8686 39.8116C23.1424 40.2377 23.4163 40.6621 23.6906 41.0904C22.5107 41.4566 21.2638 41.5249 20.0904 41.9112C20.09 41.7646 20.0598 41.5988 19.9824 41.4059C19.6127 41.3779 19.2452 41.3538 18.8759 41.3341C19.1236 41.5345 19.376 41.7301 19.6306 41.9234C19.4412 42.1365 19.2518 42.35 19.0654 42.5631C19.1236 42.3456 19.1826 42.1304 19.2456 41.9151C18.6279 41.4995 17.906 41.391 17.1819 41.5236C17.29 42.0057 17.6116 42.2971 18.1077 42.3124Z" fill="#2051A8"/>
<path d="M46.6699 29.9167C45.6002 27.8158 43.0819 27.2112 40.9159 27.1416C41.8276 27.5826 42.8054 27.8893 43.6647 28.4379C42.4686 28.4161 41.3945 27.8049 40.2067 27.7336C42.2227 28.7621 44.3266 30.0103 46.6699 29.9167Z" fill="#2051A8"/>
<path d="M40.1196 23.2273C41.7309 23.3555 43.127 22.2723 44.7409 22.3401C43.4363 23.3555 41.3766 22.9031 40.383 24.3123C43.3038 23.5165 46.9779 23.499 48.8876 20.783C45.8303 20.7939 42.7617 21.7249 40.1196 23.2273Z" fill="#2051A8"/>
<path d="M19.5099 16.8906C19.8861 17.0188 20.2208 16.3643 19.7558 16.2728C19.3909 16.1617 19.058 16.7926 19.5099 16.8906Z" fill="#2051A8"/>
<path d="M41.2851 25.8632C42.2262 26.0566 43.1878 26.1393 44.1171 26.3983C42.7385 26.7417 41.3809 26.0588 39.9958 26.2504C40.4674 26.6311 41.0266 26.8984 41.6356 26.9614C43.7408 27.2615 45.9108 27.6006 48.0112 27.0896C46.0609 25.7609 43.5588 25.6611 41.2851 25.8632Z" fill="#2051A8"/>
<path d="M40.6306 24.7516C41.9593 24.7017 43.2749 24.3062 44.6088 24.5407C43.5269 24.9931 42.3111 24.8583 41.2269 25.2844C43.7881 25.7758 46.6419 25.4389 48.7624 23.8188C46.0547 23.3599 43.1462 23.632 40.6306 24.7516Z" fill="#2051A8"/>
<path d="M19.0881 41.1184C19.4797 41.2204 19.873 41.3293 20.2667 41.4404C20.7563 39.7027 21.8063 38.1281 23.4683 37.3236C23.1853 37.289 22.9027 37.2562 22.6218 37.2238C22.5286 37.1192 22.3392 36.9127 22.2438 36.8104C21.3023 37.3104 20.9392 38.3827 20.5043 39.2853C20.1455 37.5108 18.0381 37.3367 16.8573 38.4243C17.2012 37.8175 17.5857 37.2347 18.025 36.6931C17.4746 36.2495 16.9487 35.7774 16.4377 35.2905C16.1183 36.4389 15.463 37.6154 15.8029 38.8329C16.2807 40.1962 17.388 42.0538 19.0881 41.1184Z" fill="#2051A8"/>
<path d="M9.79998 19.3804C11.3352 20.8766 13.3079 22.0076 15.4499 22.3182C14.045 21.0372 11.9984 20.5481 10.9353 18.8672C12.4661 19.4565 13.5428 20.7633 14.98 21.5136C14.4909 20.3525 13.3538 19.7151 12.523 18.8344C11.4397 17.7275 10.2502 16.7033 8.83661 16.0423C8.83048 17.2078 8.89961 18.5194 9.79998 19.3804Z" fill="#2051A8"/>
<path d="M15.9394 18.3995C15.5588 20.2068 16.8591 21.8098 18.4271 22.5164C18.0771 20.9177 17.668 19.0387 15.9394 18.3995Z" fill="#2051A8"/>
<path d="M29.8572 20.398C30.3708 19.9216 30.814 19.3694 31.1399 18.7473C30.2719 18.8431 29.9963 19.6674 29.8572 20.398Z" fill="#2051A8"/>
<path d="M15.7089 24.3079C14.7153 22.8988 12.6534 23.3511 11.3466 22.3423C12.9618 22.2639 14.361 23.3621 15.9745 23.2208C13.328 21.7376 10.2638 20.7896 7.20782 20.783C9.11926 23.4924 12.7881 23.5143 15.7089 24.3079Z" fill="#2051A8"/>
<path d="M12.9277 27.1679C14.0171 27.0134 15.2329 27.0288 16.1 26.2478C14.7131 26.0606 13.3538 26.7435 11.9744 26.3979C12.901 26.1411 13.8622 26.0544 14.8041 25.8628C12.5357 25.6585 10.0459 25.767 8.09286 27.076C9.67661 27.4899 11.3225 27.37 12.9277 27.1679Z" fill="#2051A8"/>
<path d="M14.9476 25.1974C13.7279 24.9362 12.4753 24.8688 11.2534 24.619C11.2595 24.5669 11.2726 24.458 11.2796 24.4037C12.6888 24.3622 14.0696 24.6627 15.47 24.7603C12.95 23.6228 10.0314 23.3577 7.3172 23.8232C9.46532 25.4021 12.39 25.8803 14.9476 25.1974Z" fill="#2051A8"/>
<path d="M15.8869 27.7357C14.6978 27.8075 13.6189 28.4187 12.4206 28.4379C13.2882 27.8924 14.2734 27.5918 15.1887 27.1416C13.0121 27.1937 10.535 27.8399 9.40625 29.8861C11.76 30.0471 13.8626 28.749 15.8869 27.7357Z" fill="#2051A8"/>
<path d="M18.1488 20.083C18.1615 21.2179 18.5946 22.2814 19.2706 23.1796C18.7946 23.1643 18.3177 23.1534 17.8417 23.1512C18.0854 23.6145 18.344 24.0713 18.6113 24.5236C18.2656 24.7104 17.924 24.8999 17.5827 25.0954C18.4525 25.5763 19.0094 26.2526 18.2805 27.1635C18.7115 27.1635 19.1441 27.1635 19.5768 27.1635C19.5029 27.6461 19.4333 28.1269 19.3703 28.6116C19.9115 28.5333 20.4247 28.3334 20.9077 28.0766C21.021 28.2594 21.1387 28.4441 21.2577 28.6291C21.5841 28.5618 21.9056 28.4703 22.2276 28.3789C22.5295 28.5569 22.8323 28.7333 23.1363 28.9118C23.1928 28.5919 23.2518 28.2765 23.3105 27.9589C23.5366 27.8307 23.7628 27.7025 23.9912 27.5739C23.489 26.0733 21.7814 27.2304 20.8333 26.3756C20.4575 25.5163 21.277 24.6794 21.399 23.8245C21.6011 23.1656 20.9296 22.7434 20.5052 22.3803C19.6145 21.7293 18.886 20.8963 18.1488 20.083Z" fill="#2051A8"/>
<path d="M24.8076 27.9313C24.6558 27.664 24.4987 27.4006 24.3377 27.1421C24.3854 26.7658 24.4335 26.3918 24.4834 26.0155C24.105 26.0046 23.7265 25.9958 23.3503 25.9914C23.6443 26.7614 24.0162 27.5573 24.8076 27.9313Z" fill="#2051A8"/>
<path d="M22.0588 31.3127C22.0045 32.3977 22.3151 33.47 22.9701 34.3398C23.2396 33.5654 23.4154 32.6891 22.9023 31.9734C22.848 32.1908 22.7373 32.6279 22.6809 32.8453C22.4893 32.3286 22.2915 31.8128 22.0588 31.3127Z" fill="#2051A8"/>
<path d="M24.223 35.8645C23.9509 35.9104 23.6836 35.9581 23.4141 36.008C23.6722 35.7232 23.9225 35.4318 24.1705 35.1382C23.3441 35.2056 22.522 35.4318 21.9109 36.0211C22.2482 36.0907 22.5872 36.1602 22.9267 36.232C23.4662 36.7776 23.8945 36.4144 24.223 35.8645Z" fill="#2051A8"/>
<path d="M22.9618 29.2359C23.1184 29.9539 23.3463 30.6539 23.6399 31.3281C24.0638 30.4058 24.7275 29.4993 24.7249 28.4533C24.6488 27.9291 24.1334 27.9094 23.7156 27.9094C23.4916 28.3662 23.2483 28.8164 22.9618 29.2359Z" fill="#2051A8"/>
<path d="M28.9502 31.0257C28.0613 31.8001 28.4743 32.9962 29.0811 33.7986C29.7789 32.9376 29.6638 31.8391 28.9502 31.0257Z" fill="#2051A8"/>
<path d="M27.9698 32.4936C27.2952 33.4482 27.3109 34.8443 28.1129 35.721C28.6352 34.7554 28.9699 33.2679 27.9698 32.4936Z" fill="#2051A8"/>
<path d="M25.032 37.4089C24.7538 37.2457 24.4751 37.0847 24.1968 36.9263C24.4943 36.2237 25.2101 35.9953 25.8996 35.8623C26.7829 35.7144 26.9763 34.7078 27.2003 33.9964C26.5891 34.4076 25.991 34.8338 25.3755 35.2363C25.4105 35.112 25.48 34.8661 25.5146 34.7423C25.4341 34.3897 25.3536 34.0375 25.2748 33.6875C24.7008 34.0222 24.1767 34.4356 23.7309 34.9269C24.1203 34.8661 24.5092 34.7966 24.9012 34.7274C24.6444 35.0381 24.3902 35.3496 24.14 35.6672C24.5206 35.5994 24.9012 35.5302 25.284 35.4646C24.7056 35.9231 23.8376 36.2976 23.7598 37.1214C23.8923 37.7589 24.6015 37.5349 25.032 37.4089Z" fill="#2051A8"/>
<path d="M24.7818 39.1484C26.3148 38.9896 27.5608 37.2562 26.8756 35.7884C26.1253 36.6214 25.1663 37.2715 24.5661 38.2327C25.4511 37.9304 26.0623 37.2015 26.7579 36.6214C26.4101 37.6871 25.3295 38.2112 24.7818 39.1484Z" fill="#2051A8"/>
<path d="M23.5489 32.102C23.1941 30.8407 23.016 29.4249 22.0329 28.466C21.7109 29.8384 21.9459 31.6956 23.5489 32.102Z" fill="#2051A8"/>
<path d="M29.4962 23.4141C29.6664 22.4486 29.4695 21.4655 28.8868 20.6741C28.2524 21.6484 28.4195 22.8533 29.4962 23.4141Z" fill="#2051A8"/>
<path d="M26.5974 23.4167C27.6868 22.8489 27.8828 21.5854 27.1128 20.6592C26.6713 21.5097 26.4233 22.4577 26.5974 23.4167Z" fill="#2051A8"/>
<path d="M25.6664 22.5356C25.0902 22.9486 24.5184 23.3642 23.9334 23.7641C24.934 24.3298 25.6121 23.5082 25.6664 22.5356Z" fill="#2051A8"/>
<path d="M29.2158 20.6959C29.6704 20.0524 30.009 19.3305 30.1984 18.5627C29.4547 19.0238 29.099 19.8327 29.2158 20.6959Z" fill="#2051A8"/>
<path d="M23.0917 23.8818C23.0982 24.5713 23.0982 25.6563 24.0227 25.7171C25.2731 25.5736 25.7272 24.1622 26.0579 23.1337C25.3032 24.0537 24.0769 25.2302 23.0917 23.8818Z" fill="#2051A8"/>
<path d="M25.8952 18.5649C26.0951 19.3305 26.4364 20.0519 26.8848 20.7047C26.9955 19.8393 26.6411 19.026 25.8952 18.5649Z" fill="#2051A8"/>
<path d="M24.9314 18.7626C25.2403 19.3589 25.6948 19.8656 26.2408 20.2567C26.11 19.5326 25.743 18.8475 24.9314 18.7626Z" fill="#2051A8"/>
<path d="M35.6672 17.8469C35.8588 16.7882 36.0605 15.7312 36.2438 14.672C35.0844 14.9594 35.3093 16.8814 35.6672 17.8469Z" fill="#2051A8"/>
<path d="M32.5124 16.5248C33.1231 16.3879 33.3235 15.7596 33.4968 15.2394C32.8449 15.3374 32.4905 15.8922 32.5124 16.5248Z" fill="#2051A8"/>
<path d="M33.6897 20.1657C33.6149 19.6026 33.3821 19.0916 33.0238 18.6563C33.7501 18.6738 34.4807 18.6826 35.2096 18.6891C35.1505 18.1759 35.2249 17.3145 34.4855 17.3255C33.5851 17.7428 32.8458 18.4236 32.1129 19.0759C32.6366 19.4395 33.1564 19.8113 33.6897 20.1657Z" fill="#2051A8"/>
<path d="M32.1085 15.253C31.6601 16.429 33.3388 15.1813 32.1085 15.253V15.253Z" fill="#2051A8"/>
<path d="M33.3777 17.1557C33.2006 18.0364 34.2326 16.9295 33.3777 17.1557V17.1557Z" fill="#2051A8"/>
<path d="M32.7705 16.7449C32.5098 16.5603 32.0705 16.5537 31.8058 16.7252C31.8623 17.0752 32.7141 17.1014 32.7705 16.7449Z" fill="#2051A8"/>
<path d="M29.5873 17.9843C29.3178 18.1366 29.0487 18.2888 28.7823 18.4432C28.8978 18.5303 29.0176 18.6213 29.1375 18.7106C28.7009 19.0431 28.3719 19.4849 28.235 20.0217C29.3046 19.6564 29.775 17.5381 31.0529 18.7149C32.1226 18.6843 33.1039 18.2127 33.3078 17.0708C32.0045 17.1793 30.6959 17.1535 29.3961 17.0341C29.4573 17.3491 29.5203 17.6689 29.5873 17.9843Z" fill="#2051A8"/>
<path d="M32.1436 14.0853C31.7012 14.4008 31.9327 14.7442 32.2862 15.0076C32.9459 14.8334 32.6423 13.6894 32.1436 14.0853Z" fill="#2051A8"/>
<path d="M31.108 15.2136C31.2629 15.7399 31.4471 16.373 32.0631 16.5204C32.0889 15.8922 31.7275 15.3637 31.108 15.2136Z" fill="#2051A8"/>
<path d="M34.3914 16.7164C35.2673 15.8379 34.3521 14.7634 33.7728 14.0131C33.7019 14.9612 34.0773 15.8445 34.3914 16.7164Z" fill="#2051A8"/>
<path d="M31.9948 35.7451C31.6077 35.0836 30.9728 34.6426 30.2475 34.4269C30.6727 35.0446 31.2318 35.5906 31.9948 35.7451Z" fill="#2051A8"/>
<path d="M29.3335 29.3252C28.8571 29.9145 28.7481 31.0039 29.4809 31.4366C30.5235 31.2327 30.1136 29.0058 29.3335 29.3252Z" fill="#2051A8"/>
<path d="M33.1673 36.2429C33.5086 36.1602 33.8481 36.0819 34.1919 36.0019C33.5545 35.4707 32.7609 35.2214 31.9498 35.1273C32.1821 35.4252 32.4231 35.7188 32.6699 36.0058C32.403 35.9533 32.1348 35.9039 31.8697 35.8579C32.1882 36.4083 32.6213 36.7627 33.1673 36.2429Z" fill="#2051A8"/>
<path d="M29.8843 32.7202C29.6297 33.3309 29.5444 34.0226 29.9298 34.6032C30.9164 34.1814 30.5292 33.2723 29.8843 32.7202Z" fill="#2051A8"/>
<path d="M36.2075 16.3621C36.0273 17.2296 37.0773 16.1836 36.2075 16.3621V16.3621Z" fill="#2051A8"/>
<path d="M34.139 13.8587C34.5061 14.3832 35.0674 14.6895 35.6869 14.8111C35.4029 14.1872 34.7939 13.909 34.139 13.8587Z" fill="#2051A8"/>
<path d="M27.772 15.8034C27.8158 15.9058 27.9046 16.1079 27.9479 16.2102C28.3377 15.9145 28.7332 15.6275 29.1239 15.3317C28.3933 15.2123 27.6526 15.2211 26.9303 15.3799C27.2059 15.5225 27.4894 15.6638 27.772 15.8034Z" fill="#2051A8"/>
</svg>
